<?xml version="1.0" encoding="UTF-8" standalone="no"?>
<svg xmlns:dc="http://purl.org/dc/elements/1.1/" xmlns:cc="http://creativecommons.org/ns#" xmlns:rdf="http://www.w3.org/1999/02/22-rdf-syntax-ns#" xmlns:svg="http://www.w3.org/2000/svg" xmlns="http://www.w3.org/2000/svg" version="1.1" id="svg3386" viewBox="0 0 289.37164 238.08449" height="67.192734mm" width="81.667107mm">
  <defs id="defs3388">
    <clipPath id="clipPath40">
      <path id="path42" d="m 0,2500 5000,0 L 5000,0 0,0 0,2500 Z"></path>
    </clipPath>
    <clipPath id="clipPath48">
      <path id="path50" d="m 285.858,1942.59 1637.682,0 0,-887.47 -1637.682,0 0,887.47 z"></path>
    </clipPath>
  </defs>
  <metadata id="metadata3391"></metadata>
  <g transform="translate(-245.24275,-233.31996)" id="layer1">
    <g transform="matrix(0.1766964,0,0,-0.17668747,194.73252,616.28137)" id="g36">
      <g clip-path="url(#clipPath40)" id="g38">
        <g id="g44">
          <g id="g46"></g>
          <g id="g52">
            <g id="g54" clip-path="url(#clipPath48)">
              <g id="g56" transform="translate(1774.8979,1941.6689)">
                <path id="path58" style="fill:#9ac030;fill-opacity:1;fill-rule:evenodd;stroke:none" d="m 0,0 c -170.837,2.081 -864.584,-672.919 -864.584,-672.919 0,0 -121.71,-133.972 -229.169,-131.25 -60.415,54.169 93.75,220.832 147.919,306.25 47.916,83.332 270.831,279.169 175,358.332 -95.834,79.168 -387.5,-147.913 -508.334,-275 -120.835,-127.082 -260.416,-345.832 -191.666,-387.5 22.916,4.168 393.75,691.668 581.25,552.087 31.25,-29.169 -266.669,-402.087 -275,-452.087 -8.334,-50 -27.084,-179.163 104.166,-183.332 172.915,-35.418 850,772.919 1075,797.919 16.668,0 17.315,0.366 31.25,-8.337 50,-39.582 -70.832,-143.75 -70.832,-143.75 0,0 -38.702,-41.309 -18.75,-64.582 105.017,-5.859 189.582,147.919 189.582,147.919 0,0 35.473,171.179 -145.832,156.25"></path>
              </g>
            </g>
          </g>
        </g>
      </g>
    </g>
    <path id="path82" style="fill:#f08d48;fill-opacity:1;fill-rule:evenodd;stroke:none" d="m 340.78022,338.15059 c -0.81741,2.90632 -5.16696,9.84043 -16.8851,12.92804 l -0.10683,-26.1775 c 0,0 0.74264,-0.73765 1.92351,-1.28221 1.18086,-0.54562 12.7064,-4.72551 15.06833,14.53167 m -9.72503,41.5643 c 0.13909,8.66828 -3.31251,11.24138 -6.62558,13.03584 -0.48328,-1.79446 -1.92616,-16.91818 0.74778,-25.21649 3.24415,0.27599 5.7398,3.55335 5.8778,12.18065 m -11.90685,-29.4969 -3.69598,0.54029 c 0,0 -10.67085,-1.15392 -15.70953,-10.47139 -2.96797,-20.77455 15.76608,-20.24077 19.08516,-19.77378 0.75927,2.1395 0.32035,29.70488 0.32035,29.70488 m -0.91725,44.02838 c -2.27778,0.82832 -8.66712,-4.46984 -8.54961,-14.10443 0.0692,-5.65964 3.4781,-15.5174 8.01511,-13.24943 1.25047,18.00517 0.67252,24.59312 0.5345,27.35386 m 32.0439,-120.92243 c 0,0 -6.824,-3.47914 -9.5849,-4.58344 -3.29838,-1.32002 -11.7708,-0.62867 -13.33561,2.49995 -1.64911,3.29875 4.16754,5.41795 4.16754,5.41795 0,0 22.45493,8.26808 22.08706,12.50097 -0.36825,4.23273 -22.08706,14.58539 -22.08706,14.58539 l -7.91812,2.08349 c 0,0 0.41684,-40.42218 0,-47.9226 2.91744,1.24992 9.16825,-6.25046 9.16825,-12.08469 0,-5.83423 -5.41767,-12.501 -11.25183,-12.501 -5.83454,0 -12.91881,1.66616 -12.502,12.08473 0.41665,10.41748 9.58474,11.66736 9.58474,11.66736 l 0.417,44.17189 c 0,0 -0.0492,3.11674 -0.417,5.41792 -1.10436,0.45957 -12.08516,-5.41792 -12.08516,-5.41792 l -4.16792,-2.08352 -7.91759,-5.41689 c 0,0 -4.06896,-3.40881 -3.3339,-7.08411 2.50026,-12.50291 20.10576,-9.04338 21.67022,-11.25196 2.38329,-3.36379 -3.33374,-5.00081 -3.33374,-5.00081 0,0 -5.58431,-1.47728 -10.00171,-0.83254 -12.86652,1.8766 -21.15145,14.01521 -19.58664,19.16883 1.5645,5.15274 25.00378,19.5851 25.00378,19.5851 0,0 8.46553,3.16518 7.08502,5.8342 -0.7704,1.48931 -16.1711,8.0407 -17.91986,12.91852 -1.74877,4.87763 -2.26259,7.71594 -1.25029,12.501 1.95301,9.23225 16.25305,15.83543 16.25305,15.83543 0,0 5.15813,2.10504 5.00068,5.41795 -0.15789,3.31289 -9.69214,5.96568 -10.41854,12.50097 -2.5241,15.14408 13.33598,27.24274 13.33598,30.00349 0,2.76074 -5.27492,3.45087 -6.66834,10.41747 0.36841,7.7301 8.43637,3.5276 8.75196,21.66985 0.31539,14.67073 0.25876,20.25456 0.4163,32.08698 0.63133,2.83937 2.53312,7.31292 4.58438,-0.41715 0.473,-12.46231 0.18952,-41.92459 0.83313,-45.42177 0.6444,-3.49734 5.00084,-7.8488 5.00084,-12.08488 0,-4.14104 -3.94756,-6.28831 -4.1672,-9.5839 -0.18388,-2.76072 6.31018,-5.85575 8.33496,-9.16866 2.02441,-3.31289 4.05076,-12.36282 4.1672,-14.16822 0.18389,-2.85244 -0.41684,-5.00058 -0.41684,-5.00058 l -1.25047,-5.00062 -1.66659,-2.91694 -2.91744,-2.08349 c 0,0 -1.62314,-0.56736 -2.08362,-2.49995 3.57741,-8.85257 17.36766,-14.76772 19.1698,-22.08593 -0.82818,-10.7668 -6.34075,-16.73586 -9.58471,-19.16883 -1.47224,-1.10431 -8.39927,-3.69348 -9.16825,-5.00062 2.05673,-7.3903 24.58766,-17.08531 24.58766,-17.08531 0,0 7.18623,-4.36754 7.40887,-9.12449 0.27631,-5.88918 -11.99309,-13.37862 -11.99309,-13.37862"></path>
  </g>
</svg>
