<?xml version="1.0" encoding="UTF-8" standalone="no"?>
<svg
   xmlns:dc="http://purl.org/dc/elements/1.1/"
   xmlns:cc="http://creativecommons.org/ns#"
   xmlns:rdf="http://www.w3.org/1999/02/22-rdf-syntax-ns#"
   xmlns:svg="http://www.w3.org/2000/svg"
   xmlns="http://www.w3.org/2000/svg"
   xml:space="preserve"
   height="76"
   width="92.371635"
   version="1.1"
   id="svg2"><metadata
     id="metadata8"><rdf:RDF><cc:Work
         rdf:about=""><dc:format>image/svg+xml</dc:format><dc:type
           rdf:resource="http://purl.org/dc/dcmitype/StillImage" /><dc:title></dc:title></cc:Work></rdf:RDF></metadata><defs
     id="defs6"><clipPath
       id="clipPath16"
       clipPathUnits="userSpaceOnUse"><path
         id="path18"
         d="M 101.98,0 5000,0 l 0,2499.999 -4898.02,0 L 101.98,0 Z" /></clipPath><clipPath
       id="clipPath40"
       clipPathUnits="userSpaceOnUse"><path
         id="path42"
         d="m 0,2500 5000,0 L 5000,0 0,0 0,2500 Z" /></clipPath><clipPath
       id="clipPath48"
       clipPathUnits="userSpaceOnUse"><path
         id="path50"
         d="m 285.858,1942.59 1637.682,0 0,-887.47 -1637.682,0 0,887.47 z" /></clipPath><clipPath
       id="clipPath64"
       clipPathUnits="userSpaceOnUse"><path
         id="path66"
         d="m 0,2500 5000,0 L 5000,0 0,0 0,2500 Z" /></clipPath><clipPath
       id="clipPath72"
       clipPathUnits="userSpaceOnUse"><path
         id="path74"
         d="m 480.626,2167.45 467.555,0 0,-1347.489 -467.555,0 0,1347.489 z" /></clipPath></defs><g
     transform="matrix(1.25,0,0,-1.25,-357.32356,1100.9516)"
     id="g10"><g
       transform="matrix(0.04512325,0,0,0.04512097,272.95997,782.96382)"
       id="g36"><g
         clip-path="url(#clipPath40)"
         id="g38"><g
           id="g44"><g
             id="g46" /><g
             id="g52"><g
               id="g54"
               clip-path="url(#clipPath48)"><g
                 id="g56"
                 transform="translate(1774.8979,1941.6689)"><path
                   id="path58"
                   style="fill:#9ac030;fill-opacity:1;fill-rule:evenodd;stroke:none"
                   d="m 0,0 c -170.837,2.081 -864.584,-672.919 -864.584,-672.919 0,0 -121.71,-133.972 -229.169,-131.25 -60.415,54.169 93.75,220.832 147.919,306.25 47.916,83.332 270.831,279.169 175,358.332 -95.834,79.168 -387.5,-147.913 -508.334,-275 -120.835,-127.082 -260.416,-345.832 -191.666,-387.5 22.916,4.168 393.75,691.668 581.25,552.087 31.25,-29.169 -266.669,-402.087 -275,-452.087 -8.334,-50 -27.084,-179.163 104.166,-183.332 172.915,-35.418 850,772.919 1075,797.919 16.668,0 17.315,0.366 31.25,-8.337 50,-39.582 -70.832,-143.75 -70.832,-143.75 0,0 -38.702,-41.309 -18.75,-64.582 105.017,-5.859 189.582,147.919 189.582,147.919 0,0 35.473,171.179 -145.832,156.25" /></g></g></g></g></g></g><g
       transform="matrix(0.04512325,0,0,0.04512097,272.95997,782.96382)"
       id="g60"><g
         clip-path="url(#clipPath64)"
         id="g62"><g
           id="g68"><g
             id="g70" /><g
             id="g76"><g
               id="g78"
               clip-path="url(#clipPath72)"><g
                 id="g80"
                 transform="translate(826.5459,1574.1396)"><path
                   id="path82"
                   style="fill:#f08d48;fill-opacity:1;fill-rule:evenodd;stroke:none"
                   d="m 0,0 c -4.626,-16.449 -29.242,-55.694 -95.56,-73.169 l -0.604,148.157 c 0,0 4.203,4.175 10.886,7.257 C -78.595,85.333 -13.367,108.99 0,0 m -55.038,-235.242 c 0.787,-49.06 -18.747,-63.623 -37.497,-73.779 -2.735,10.156 -10.901,95.752 4.232,142.718 18.36,-1.562 32.484,-20.111 33.265,-68.939 m -67.386,166.944 -20.917,-3.058 c 0,0 -60.391,6.531 -88.907,59.265 -16.797,117.578 89.227,114.557 108.011,111.914 4.297,-12.109 1.813,-168.121 1.813,-168.121 m -5.191,-249.188 c -12.891,-4.688 -49.051,25.298 -48.386,79.827 0.391,32.032 19.684,87.824 45.361,74.988 7.077,-101.904 3.806,-139.19 3.025,-154.815 M 53.735,366.9 c 0,0 -38.62,19.691 -54.245,25.941 -18.667,7.471 -66.616,3.558 -75.472,-14.149 -9.333,-18.67 23.586,-30.664 23.586,-30.664 0,0 127.082,-46.795 125,-70.752 -2.084,-23.956 -125,-82.549 -125,-82.549 l -44.812,-11.792 c 0,0 2.359,228.778 0,271.228 16.511,-7.074 51.887,35.376 51.887,68.396 0,33.02 -30.661,70.752 -63.679,70.752 -33.02,0 -73.113,-9.43 -70.754,-68.396 2.358,-58.96 54.244,-66.034 54.244,-66.034 l 2.36,-250 c 0,0 -0.278,-17.64 -2.36,-30.664 -6.25,-2.601 -68.395,30.664 -68.395,30.664 l -23.588,11.792 -44.809,30.658 c 0,0 -23.028,19.293 -18.868,40.094 14.15,70.763 113.787,51.183 122.641,63.683 13.488,19.038 -18.867,28.303 -18.867,28.303 0,0 -31.604,8.361 -56.604,4.712 -72.817,-10.621 -119.705,-79.322 -110.849,-108.49 8.854,-29.163 141.507,-110.846 141.507,-110.846 0,0 47.91,-17.914 40.097,-33.02 -4.36,-8.429 -91.519,-45.508 -101.416,-73.115 -9.897,-27.606 -12.805,-43.67 -7.076,-70.752 11.053,-52.252 91.983,-89.624 91.983,-89.624 0,0 29.192,-11.914 28.301,-30.664 -0.894,-18.75 -54.852,-33.764 -58.963,-70.752 -14.285,-85.711 75.474,-154.186 75.474,-169.811 0,-15.625 -29.853,-19.531 -37.739,-58.96 2.085,-43.75 47.745,-19.965 49.531,-122.645 1.785,-83.032 1.464,-114.635 2.356,-181.603 3.573,-16.07 14.336,-41.389 25.945,2.361 2.677,70.533 1.072,237.281 4.715,257.074 3.647,19.794 28.302,44.422 28.302,68.397 0,23.437 -22.341,35.59 -23.584,54.242 -1.04,15.625 35.712,33.142 47.171,51.892 11.457,18.75 22.925,69.97 23.584,80.188 1.041,16.144 -2.359,28.302 -2.359,28.302 l -7.077,28.302 -9.432,16.509 -16.511,11.792 c 0,0 -9.186,3.211 -11.792,14.149 20.246,50.103 98.291,83.581 108.49,125 -4.687,60.937 -35.885,94.72 -54.244,108.49 -8.332,6.25 -47.535,20.904 -51.887,28.302 11.64,41.827 139.152,96.698 139.152,96.698 0,0 40.67,24.719 41.93,51.642 1.563,33.331 -67.874,75.719 -67.874,75.719" /></g></g></g></g></g></g></g></svg>